<svg width="20" height="20" viewBox="0 0 20 20" fill="none" xmlns="http://www.w3.org/2000/svg">
<path d="M11.997 9.12042e-07C13.827 -0.000872552 15.602 0.625667 17.0259 1.77513C18.4498 2.92458 19.4366 4.52747 19.8217 6.31647C20.2068 8.10546 19.9669 9.97241 19.1421 11.6059C18.3172 13.2395 16.9573 14.5408 15.289 15.293C14.7558 16.4719 13.9446 17.5039 12.9249 18.3004C11.9052 19.097 10.7076 19.6343 9.43467 19.8663C8.16175 20.0984 6.85153 20.0182 5.6164 19.6327C4.38127 19.2472 3.25807 18.5678 2.34315 17.6529C1.42822 16.738 0.748867 15.6148 0.36335 14.3796C-0.0221684 13.1445 -0.102346 11.8343 0.129694 10.5614C0.361733 9.28844 0.899065 8.0908 1.69561 7.07114C2.49215 6.05148 3.52412 5.24024 4.70303 4.707C5.33687 3.30366 6.36224 2.11307 7.65607 1.27813C8.9499 0.44319 10.4572 -0.000609869 11.997 9.12042e-07ZM8.99704 7H6.99703V8C6.34715 7.99842 5.72219 8.24997 5.25462 8.70134C4.78705 9.15271 4.51362 9.76842 4.4923 10.418C4.47097 11.0675 4.70342 11.6998 5.14038 12.1809C5.57733 12.6619 6.18444 12.9539 6.83303 12.995L6.99703 13H8.99704L9.08704 13.008C9.20232 13.0289 9.30661 13.0896 9.38171 13.1795C9.45681 13.2694 9.49795 13.3828 9.49795 13.5C9.49795 13.6172 9.45681 13.7306 9.38171 13.8205C9.30661 13.9104 9.20232 13.9711 9.08704 13.992L8.99704 14H4.99703V16H6.99703V17H8.99704V16C9.64692 16.0016 10.2719 15.75 10.7395 15.2987C11.207 14.8473 11.4804 14.2316 11.5018 13.582C11.5231 12.9325 11.2906 12.3002 10.8537 11.8191C10.4167 11.3381 9.80962 11.0461 9.16103 11.005L8.99704 11H6.99703L6.90703 10.992C6.79175 10.9711 6.68746 10.9104 6.61236 10.8205C6.53726 10.7306 6.49612 10.6172 6.49612 10.5C6.49612 10.3828 6.53726 10.2694 6.61236 10.1795C6.68746 10.0896 6.79175 10.0289 6.90703 10.008L6.99703 10H10.997V8H8.99704V7ZM11.997 2C11.1497 1.99982 10.3119 2.17911 9.53891 2.52608C8.76587 2.87304 8.07509 3.3798 7.51203 4.013C8.6423 3.94439 9.77425 4.1165 10.833 4.51795C11.8918 4.9194 12.8533 5.54104 13.654 6.34178C14.4546 7.14252 15.0762 8.10409 15.4775 9.16293C15.8788 10.2218 16.0508 11.3537 15.982 12.484C16.8912 11.6756 17.5332 10.6099 17.8229 9.42831C18.1125 8.24668 18.036 7.00492 17.6037 5.86772C17.1713 4.73053 16.4035 3.75164 15.402 3.06088C14.4005 2.37013 13.2126 2.00014 11.996 2" fill="#9338CC"/>
</svg>
