<svg width="20" height="17" viewBox="0 0 20 17" fill="none" xmlns="http://www.w3.org/2000/svg">
<path fill-rule="evenodd" clip-rule="evenodd" d="M0 3.5C0 2.70435 0.316071 1.94129 0.87868 1.37868C1.44129 0.816071 2.20435 0.5 3 0.5H17C17.7956 0.5 18.5587 0.816071 19.1213 1.37868C19.6839 1.94129 20 2.70435 20 3.5V4.5H0V3.5ZM0 6.5V13.5C0 14.2956 0.316071 15.0587 0.87868 15.6213C1.44129 16.1839 2.20435 16.5 3 16.5H17C17.7956 16.5 18.5587 16.1839 19.1213 15.6213C19.6839 15.0587 20 14.2956 20 13.5V6.5H0ZM5 8.5C4.73478 8.5 4.48043 8.60536 4.29289 8.79289C4.10536 8.98043 4 9.23478 4 9.5C4 9.76522 4.10536 10.0196 4.29289 10.2071C4.48043 10.3946 4.73478 10.5 5 10.5H10C10.2652 10.5 10.5196 10.3946 10.7071 10.2071C10.8946 10.0196 11 9.76522 11 9.5C11 9.23478 10.8946 8.98043 10.7071 8.79289C10.5196 8.60536 10.2652 8.5 10 8.5H5Z" fill="white"/>
</svg>
