<?xml version="1.0" standalone="no"?>
<!DOCTYPE svg PUBLIC "-//W3C//DTD SVG 20010904//EN"
 "http://www.w3.org/TR/2001/REC-SVG-20010904/DTD/svg10.dtd">
<svg version="1.0" xmlns="http://www.w3.org/2000/svg"
 width="512.000000pt" height="512.000000pt" viewBox="0 0 512.000000 512.000000"
 preserveAspectRatio="xMidYMid meet">

<g transform="translate(0.000000,512.000000) scale(0.100000,-0.100000)"
fill="#000000" stroke="none">
<path d="M2175 4469 c-431 -26 -815 -90 -1070 -179 -210 -74 -375 -191 -432
-308 l-28 -57 -3 -381 -3 -381 103 -51 c565 -279 1527 -400 2438 -307 479 50
960 175 1232 323 l69 37 -3 380 -3 380 -28 57 c-39 80 -143 174 -258 233 -232
120 -610 203 -1109 245 -174 15 -724 20 -905 9z"/>
<path d="M642 2388 l3 -293 101 -51 c339 -171 833 -283 1429 -325 191 -13 755
-7 925 10 547 56 1026 177 1305 329 l70 38 3 293 c2 276 1 293 -15 288 -10 -3
-76 -26 -147 -51 -334 -120 -693 -202 -1106 -253 -214 -27 -1076 -26 -1295 0
-412 50 -783 135 -1123 257 -77 27 -143 50 -146 50 -4 0 -5 -132 -4 -292z"/>
<path d="M642 1408 c3 -210 3 -214 31 -270 57 -117 222 -234 431 -307 704
-247 2129 -254 2870 -14 234 75 412 196 473 321 28 56 28 60 31 269 l3 212
-73 -28 c-364 -140 -806 -242 -1278 -293 -160 -18 -972 -18 -1140 0 -454 47
-962 165 -1298 301 l-53 21 3 -212z"/>
</g>
</svg>
